<svg width="30" height="30" viewBox="0 0 30 30" fill="none" xmlns="http://www.w3.org/2000/svg">
<path d="M4.50048 28.125C4.10197 28.1231 3.72045 27.9633 3.4396 27.6806C3.15874 27.3979 3.00146 27.0153 3.00224 26.6168C3.00572 26.4653 3.02937 26.315 3.07255 26.1697L4.15184 22.2656C4.19696 22.1215 4.14599 21.9762 4.07977 21.8613L4.06688 21.8379C4.0622 21.8303 4.03993 21.7992 4.02411 21.7764C4.00829 21.7535 3.99013 21.7289 3.97372 21.7049L3.96259 21.6891C2.59979 19.6235 1.87346 17.2033 1.87372 14.7287C1.86317 11.3543 3.18329 8.16621 5.59208 5.74746C8.08466 3.2502 11.4186 1.875 14.9882 1.875C18.0163 1.87351 20.9546 2.9035 23.319 4.79531C25.6306 6.65567 27.2372 9.24844 27.8431 12.1008C28.0296 12.9673 28.1234 13.8512 28.1231 14.7375C28.1231 18.1904 26.7966 21.4336 24.3872 23.8705C21.9567 26.3314 18.6931 27.6826 15.1979 27.6826C13.9675 27.6826 12.3931 27.3686 11.6372 27.1553C10.7278 26.901 9.86591 26.5693 9.77099 26.5342C9.67053 26.4957 9.56391 26.4759 9.45634 26.4756C9.33967 26.4749 9.22407 26.4978 9.11649 26.543L9.06669 26.5623L5.11278 27.9908C4.91859 28.0726 4.71106 28.118 4.50048 28.125Z" fill="#434343"/>
</svg>
